<svg xmlns="http://www.w3.org/2000/svg" fill="bold"><path fill-rule="evenodd" clip-rule="evenodd" d="M23.702 7.394a10.166 10.166 0 017.188-2.978h14.248v34.621h-16.29a4.124 4.124 0 00-4.123 4.124h-4V14.582c0-2.696 1.07-5.282 2.977-7.188zm1.023 28.768a8.124 8.124 0 014.124-1.125h12.29V8.417H30.89a6.166 6.166 0 00-6.165 6.165v21.58z" fill="#36CAD3"></path><path fill-rule="evenodd" clip-rule="evenodd" d="M.31 12.582H14.56c2.684 0 5.265 1.046 7.174 2.919a9.934 9.934 0 012.991 7.092v31.796h-4V50.63c0-1.05-.425-2.066-1.194-2.82a4.185 4.185 0 00-2.93-1.188H.31V12.582zm20.414 31.15v-21.14c0-1.58-.64-3.106-1.792-4.236a6.246 6.246 0 00-4.373-1.774H4.31v26.04H16.6c1.46 0 2.882.388 4.123 1.11z" fill="#3498db"></path></svg>