<svg id="visual" viewBox="0 0 900 600" width="900" height="600" xmlns="http://www.w3.org/2000/svg" xmlns:xlink="http://www.w3.org/1999/xlink" version="1.1"><path d="M0 109L82 61L164 115L245 43L327 85L409 85L491 109L573 55L655 91L736 61L818 127L900 73L900 0L818 0L736 0L655 0L573 0L491 0L409 0L327 0L245 0L164 0L82 0L0 0Z" fill="#8e44ad"></path><path d="M0 175L82 103L164 211L245 127L327 133L409 169L491 163L573 139L655 169L736 163L818 187L900 109L900 71L818 125L736 59L655 89L573 53L491 107L409 83L327 83L245 41L164 113L82 59L0 107Z" fill="#775fc3"></path><path d="M0 385L82 337L164 331L245 265L327 415L409 367L491 361L573 289L655 283L736 349L818 379L900 391L900 107L818 185L736 161L655 167L573 137L491 161L409 167L327 131L245 125L164 209L82 101L0 173Z" fill="#5d75d1"></path><path d="M0 511L82 475L164 457L245 385L327 505L409 481L491 493L573 451L655 343L736 457L818 523L900 487L900 389L818 377L736 347L655 281L573 287L491 359L409 365L327 413L245 263L164 329L82 335L0 383Z" fill="#4488d9"></path><path d="M0 601L82 601L164 601L245 601L327 601L409 601L491 601L573 601L655 601L736 601L818 601L900 601L900 485L818 521L736 455L655 341L573 449L491 491L409 479L327 503L245 383L164 455L82 473L0 509Z" fill="#3498db"></path></svg>